<svg width="30" height="30" viewBox="0 0 30 30" fill="none" xmlns="http://www.w3.org/2000/svg">
<g clip-path="url(#clip0)">
<path d="M7.03117 14.1212L3.51562 21.1523L7.03117 28.1834C10.9143 28.1834 14.0623 25.0354 14.0623 21.1523C14.0623 17.2691 10.9144 14.1212 7.03117 14.1212Z" fill="#4D3D36"/>
<path d="M0 21.1523C0 25.0354 3.14794 28.1834 7.0311 28.1834V14.1212C3.14794 14.1212 0 17.2691 0 21.1523Z" fill="#604A43"/>
<path d="M14.1795 2.69562H4.39453V11.8503L17.695 11.4845L14.1795 2.69562Z" fill="#BAF7FF"/>
<path d="M3.51562 1.81674V11.8502H12.8904L7.03117 1.81674H3.51562Z" fill="#9BC135"/>
<path d="M14.8533 1.81674H7.03125V11.8502L18.7821 11.8503L14.8533 1.81674Z" fill="#7FAB0D"/>
<path d="M5.27344 3.57455V11.8503H10.5468L7.03121 3.57455H5.27344Z" fill="white"/>
<path d="M13.6539 3.57455H7.03125V11.8503L16.8945 11.8503L13.6539 3.57455Z" fill="#BAF7FF"/>
<path d="M7.03121 17.6367L5.27344 21.1523L7.03121 24.6678C8.97279 24.6678 10.5468 23.0938 10.5468 21.1523C10.5468 19.2107 8.97279 17.6367 7.03121 17.6367Z" fill="#FDC54E"/>
<path d="M3.51562 21.1523C3.51562 23.0938 5.0896 24.6678 7.03117 24.6678V17.6367C5.0896 17.6367 3.51562 19.2107 3.51562 21.1523Z" fill="#FCDB5A"/>
<path d="M22.0898 4.4534H20.332V11.4845H22.0898V4.4534Z" fill="#7D9062"/>
<path d="M16.334 18.5156C16.572 19.3541 16.6995 20.2386 16.6995 21.1523C16.6995 21.9078 16.6122 22.6434 16.4475 23.3495H28.2423V18.5156L22.2882 15.0001L16.334 18.5156Z" fill="#5D734F"/>
<path d="M28.2417 14.1212C28.2417 12.1827 26.6647 10.6056 24.7262 10.6056H7.03125V11.4845C11.4484 11.4845 15.183 14.4622 16.3335 18.5156H28.2417V14.1212Z" fill="#7FAB0D"/>
<path d="M17.4956 22.4706C17.5503 22.0341 17.5779 21.5935 17.5779 21.1523C17.5779 15.3368 12.8466 10.6056 7.03122 10.6056L5.85938 11.4845L7.03122 12.3634C11.8774 12.3634 15.8201 16.3061 15.8201 21.1523C15.8201 21.8264 15.743 22.4985 15.5911 23.1498L15.3395 24.2284H21.2106V22.4706H17.4956Z" fill="#555843"/>
<path d="M7.03174 10.6056C4.43457 10.6056 1.9373 11.5617 0 13.2978L1.17308 14.6068C2.78754 13.1601 4.86816 12.3634 7.0318 12.3634V10.6056H7.03174Z" fill="#5D734F"/>
<path d="M25.1659 28.1833C27.8356 28.1833 29.9998 26.0191 29.9998 23.3494C29.9998 20.6797 27.8356 18.5155 25.1659 18.5155C22.4962 18.5155 20.332 20.6797 20.332 23.3494C20.332 26.0191 22.4962 28.1833 25.1659 28.1833Z" fill="#4D3D36"/>
<path d="M25.166 26.4256C26.8648 26.4256 28.2421 25.0484 28.2421 23.3495C28.2421 21.6506 26.8648 20.2734 25.166 20.2734C23.4671 20.2734 22.0898 21.6506 22.0898 23.3495C22.0898 25.0484 23.4671 26.4256 25.166 26.4256Z" fill="#FDC54E"/>
</g>
<defs>
<clipPath id="clip0">
<rect width="30" height="30" fill="white"/>
</clipPath>
</defs>
</svg>
