<svg width="28" height="21" viewBox="0 0 28 21" fill="none" xmlns="http://www.w3.org/2000/svg">
<path d="M0.381357 11.5034L8.71368 20.5845C9.22206 21.1385 10.0465 21.1385 10.5549 20.5845C11.0634 20.0303 11.0634 19.1319 10.5549 18.5778L4.44514 11.9189L26.6981 11.9189C27.417 11.9189 28 11.2836 28 10.5C28 9.71654 27.417 9.08109 26.6981 9.08109L4.44514 9.08109L10.5547 2.42227C11.0632 1.8681 11.0632 0.969748 10.5547 0.415573C10.3006 0.138714 9.96728 0 9.63409 0C9.3009 0 8.96771 0.138714 8.71347 0.415573L0.381357 9.49667C-0.127123 10.0508 -0.127123 10.9492 0.381357 11.5034Z" fill="#429E1A"/>
</svg>
