<svg width="30" height="30" viewBox="0 0 30 30" fill="none" xmlns="http://www.w3.org/2000/svg">
<g clip-path="url(#clip0)">
<path d="M14.9931 30C10.3436 30 5.98132 27.8334 3.1267 24.1573C0.269341 20.4776 -0.69036 15.7098 0.494103 11.0758C1.40917 7.49587 3.69662 4.33478 6.77096 2.40439C13.2566 -1.66993 21.6863 -0.391398 26.6249 5.48903L26.8686 5.77926L25.5031 17.6367H20.3251C18.871 17.6367 17.6884 18.8196 17.6884 20.2734C17.6884 21.7273 18.871 22.9101 20.3251 22.9101C21.7069 22.9101 22.8511 23.8259 23.1713 25.1882C23.4809 26.5047 22.887 27.8464 21.6931 28.4422C19.6186 29.4756 17.3249 30 14.9931 30Z" fill="#FFD396"/>
<path d="M14.9941 0.0359192V30C17.326 30 19.6196 29.4756 21.6942 28.4422C22.888 27.8464 23.4822 26.5047 23.1723 25.1882C22.8521 23.8259 21.7079 22.9101 20.3262 22.9101C18.8721 22.9101 17.6895 21.7273 17.6895 20.2734C17.6895 18.8196 18.8721 17.6367 20.3262 17.6367H25.5042L26.8699 5.77925L26.6261 5.48903C23.6292 1.92099 19.3472 0.0475922 14.9941 0.0359192Z" fill="#FFB64C"/>
<path d="M16.752 8.84766C15.2979 8.84766 14.1152 7.66479 14.1152 6.21094C14.1152 4.75708 15.2979 3.57422 16.752 3.57422C18.2058 3.57422 19.4473 4.75708 19.4473 6.21094C19.4473 7.66479 18.2058 8.84766 16.752 8.84766Z" fill="#FF641A"/>
<path d="M14.8184 8.00125C15.3002 8.52127 15.9884 8.84766 16.752 8.84766C18.2058 8.84766 19.4473 7.66479 19.4473 6.21094C19.4473 4.75708 18.2058 3.57422 16.752 3.57422C15.9884 3.57422 15.3002 3.9006 14.8184 4.42062V8.00125Z" fill="#F03800"/>
<path d="M9.66211 10.6055C8.20802 10.6055 7.02539 9.42261 7.02539 7.96875C7.02539 6.51489 8.20802 5.33203 9.66211 5.33203C11.116 5.33203 12.2988 6.51489 12.2988 7.96875C12.2988 9.42261 11.116 10.6055 9.66211 10.6055Z" fill="#47568C"/>
<path d="M6.14648 17.6367C4.6924 17.6367 3.50977 16.4539 3.50977 15C3.50977 13.5461 4.6924 12.3633 6.14648 12.3633C7.60034 12.3633 8.7832 13.5461 8.7832 15C8.7832 16.4539 7.60034 17.6367 6.14648 17.6367Z" fill="#9CDD05"/>
<path d="M9.66211 24.668C8.20802 24.668 7.02539 23.4851 7.02539 22.0312C7.02539 20.5774 8.20802 19.3945 9.66211 19.3945C11.116 19.3945 12.2988 20.5774 12.2988 22.0312C12.2988 23.4851 11.116 24.668 9.66211 24.668Z" fill="#00C8C8"/>
<path d="M23.8418 0H27.3574V21.1523H23.8418V0Z" fill="#FF641A"/>
<path d="M25.5996 0H27.3574V21.1523H25.5996V0Z" fill="#F03800"/>
<path d="M29.9766 21.9081C29.7129 21.9784 29.4316 23.7891 29.1151 23.7891C27.9901 23.7891 27.0057 23.0859 27.0057 23.0859C26.9707 23.0507 26.4257 22.6465 25.5994 22.3476C25.1073 22.1718 24.4921 22.0312 23.8416 22.0312C22.8222 22.0312 21.9433 20.625 21.3633 20.9239C21.8554 19.043 23.5605 17.6367 25.5994 17.6367C27.9725 17.6367 29.9063 19.5351 29.9766 21.9081Z" fill="#47568C"/>
<path d="M29.9767 21.9081C29.7131 21.9784 29.4318 23.7891 29.1152 23.7891C27.9903 23.7891 27.0059 23.0859 27.0059 23.0859C26.9708 23.0507 26.4259 22.6465 25.5996 22.3476V17.6367C27.9727 17.6367 29.9065 19.5351 29.9767 21.9081Z" fill="#2C3B73"/>
<path d="M29.978 21.9081C29.9954 22.4531 29.9604 22.9804 29.6967 23.7362C29.0991 25.459 27.64 27.2225 25.6362 30C25.6185 29.9824 25.6009 29.9648 25.6009 29.9471C23.3334 26.871 21.7337 25.0372 21.3119 23.0507C21.1537 22.207 21.189 21.6268 21.3648 20.9239C21.9448 20.625 22.8237 20.2734 23.8431 20.2734C24.4936 20.2734 25.1088 20.414 25.6009 20.5898C26.4272 20.8887 26.9721 21.2929 27.0072 21.3281C27.0072 21.3281 27.9916 22.0312 29.1165 22.0312C29.4331 22.0312 29.7144 21.9784 29.978 21.9081Z" fill="#9CDD05"/>
<path d="M29.9767 21.9081C29.9941 22.4531 29.9591 22.9804 29.6954 23.7362C29.0978 25.459 27.6387 27.2225 25.6349 30C25.6172 29.9824 25.5996 29.9648 25.5996 29.9471V20.5898C26.4259 20.8887 26.9708 21.2929 27.0059 21.3281C27.0059 21.3281 27.9903 22.0313 29.1152 22.0313C29.4318 22.0313 29.7131 21.9784 29.9767 21.9081Z" fill="#66BB00"/>
</g>
<defs>
<clipPath id="clip0">
<rect width="30" height="30" fill="white"/>
</clipPath>
</defs>
</svg>
