<svg width="20" height="21" viewBox="0 0 20 21" fill="none" xmlns="http://www.w3.org/2000/svg">
<path d="M17.2504 0.720444H2.74963C1.23352 0.720444 0 2.07579 0 3.74224V13.4948C0 15.1574 1.22815 16.5106 2.73987 16.5165V20.9421L8.5271 16.5165H17.2504C18.7665 16.5165 20 15.1609 20 13.4948V3.74224C20 2.07579 18.7665 0.720444 17.2504 0.720444ZM18.8281 13.4948C18.8281 14.4507 18.1204 15.2287 17.2504 15.2287H8.15942L3.91174 18.4771V15.2287H2.74963C1.87964 15.2287 1.17188 14.4507 1.17188 13.4948V3.74224C1.17188 2.786 1.87964 2.00831 2.74963 2.00831H17.2504C18.1204 2.00831 18.8281 2.786 18.8281 3.74224V13.4948Z" fill="white"/>
<path d="M5.35352 5.27105H14.6477V6.55892H5.35352V5.27105Z" fill="white"/>
<path d="M5.35352 8.01851H14.6477V9.30638H5.35352V8.01851Z" fill="white"/>
<path d="M5.35352 10.766H14.6477V12.0538H5.35352V10.766Z" fill="white"/>
</svg>
