<svg width="15" height="14" viewBox="0 0 15 14" fill="none" xmlns="http://www.w3.org/2000/svg">
<path d="M13.9957 3.14013C13.326 2.30792 12.4163 1.65059 11.2669 1.16817C10.1175 0.685817 8.86175 0.44458 7.50012 0.44458C6.48444 0.44458 5.51345 0.587016 4.58714 0.871947C3.66083 1.15685 2.86287 1.54194 2.19321 2.02714C1.52344 2.5124 0.990636 3.08932 0.59437 3.75787C0.198104 4.42644 0 5.12753 0 5.86102C0 6.70731 0.25243 7.5003 0.757497 8.23942C1.26256 8.97846 1.95304 9.59919 2.82924 10.1013C2.76779 10.327 2.69526 10.5414 2.61153 10.7444C2.52782 10.9475 2.4525 11.1142 2.38554 11.2439C2.31852 11.3737 2.22793 11.5176 2.11344 11.6756C1.99913 11.8335 1.91264 11.945 1.85403 12.0098C1.79548 12.0747 1.69923 12.1821 1.56522 12.3314C1.43138 12.481 1.34483 12.5783 1.30581 12.6235C1.30015 12.6262 1.27787 12.6518 1.23881 12.6996C1.19979 12.7475 1.18021 12.7715 1.18021 12.7715L1.12999 12.8475C1.10205 12.8899 1.0895 12.9167 1.09225 12.9278C1.09507 12.9388 1.0895 12.9672 1.07554 13.0123C1.06156 13.0575 1.06299 13.0914 1.0797 13.114V13.1225C1.10213 13.2241 1.15095 13.3059 1.22624 13.3678C1.30153 13.4298 1.38673 13.4553 1.48154 13.4438C1.84435 13.3987 2.1624 13.3369 2.43579 13.2578C3.8979 12.8796 5.18142 12.1971 6.28628 11.2095C6.70471 11.2546 7.1093 11.2773 7.49994 11.2773C8.86154 11.2773 10.1172 11.036 11.2667 10.5535C12.4162 10.0711 13.3258 9.41374 13.9954 8.58168C14.6652 7.74983 15 6.84272 15 5.86099C15 4.87924 14.6652 3.97219 13.9957 3.14013Z" fill="#C4C4C4"/>
</svg>
