<svg width="30" height="30" viewBox="0 0 30 30" fill="none" xmlns="http://www.w3.org/2000/svg">
<path d="M12.5966 18.6211L6.20703 13.9354L15.335 7.24179L21.7243 11.9275L12.5966 18.6211Z" fill="#FFD13A"/>
<path d="M7.24217 21.063L4.68981 18.939C3.94748 18.3215 3.86442 17.3432 4.49481 16.6447L10.5077 9.82996L18.1882 16.2215L9.99917 21.2253C9.15975 21.7501 7.98423 21.681 7.24217 21.063Z" fill="#766E6E"/>
<path d="M5.96484 20.0012L7.2413 21.0632C7.98336 21.681 9.15887 21.7501 9.99829 21.2253L18.1873 16.2215L14.3469 13.0258L5.96484 20.0012Z" fill="#5B5555"/>
<path d="M22.4949 12.3625L15.1445 6.24572L15.1731 5.85158C15.2829 4.34372 16.0489 2.92649 17.3289 1.86082C20.2055 -0.533035 24.8875 -0.533035 27.7638 1.86082C30.6404 4.25468 30.6404 8.15092 27.7638 10.5445C26.4835 11.61 24.7805 12.2472 22.9685 12.3387L22.4949 12.3625Z" fill="#F14336"/>
<path d="M22.4957 12.3625L22.9693 12.339C24.7812 12.2474 26.4843 11.6102 27.7649 10.5448C30.6415 8.15089 30.6415 4.25486 27.7649 1.86099L18.8203 9.30422L22.4957 12.3625Z" fill="#F14336"/>
<path d="M20.1272 26.8239L17.1458 29.305L15.6551 28.0644L18.6365 25.5834C19.4564 24.9011 19.4564 23.7846 18.6365 23.1025C17.8166 22.4202 16.475 22.4202 15.6551 23.1025L8.94691 28.7186C7.85858 29.624 6.33817 30.0955 4.80264 29.9838C3.53554 29.8968 2.37295 29.4167 1.49338 28.6849C1.28463 28.5112 1.09073 28.3251 0.911954 28.1267C0.106918 27.1837 -0.161244 26.0176 0.0920662 24.8889C0.270841 23.946 0.792862 23.0652 1.65731 22.3459L2.98409 21.2417L4.47479 22.4823L3.14801 23.5864C1.9703 24.5662 1.76182 26.0796 2.62626 27.097C3.20769 27.7545 4.02758 28.1727 4.96684 28.2347C5.89096 28.3091 6.80024 27.9903 7.4562 27.4444L14.1644 21.862C15.8041 20.4974 18.4874 20.4974 20.1272 21.862C21.7667 23.2264 21.7667 25.4593 20.1272 26.8239Z" fill="#00D7DF"/>
<path d="M16.5825 0L29.9988 11.1646L28.5081 12.4051L15.0918 1.24053L16.5825 0Z" fill="#766E6E"/>
<path d="M15.0923 8.68372L19.5644 12.4053L18.0737 13.6459L13.6016 9.92425L15.0923 8.68372Z" fill="#766E6E"/>
<path d="M28.509 12.4056L21.8008 6.82336L23.2915 5.58282L29.9997 11.165L28.509 12.4056Z" fill="#5B5555"/>
<path d="M18.074 13.6461L15.8379 11.7852L17.3286 10.5447L19.5647 12.4055L18.074 13.6461Z" fill="#5B5555"/>
<path d="M5.11874 24.2593L0.847656 20.705L4.67125 16.4437L10.2397 21.0774L5.11874 24.2593Z" fill="#00D7DF"/>
<path d="M2.98438 22.4821L5.11978 24.2594L10.2405 21.0775L7.45651 18.7607L2.98438 22.4821Z" fill="#00D7DF"/>
</svg>
