<svg width="4" height="16" viewBox="0 0 4 16" fill="none" xmlns="http://www.w3.org/2000/svg">
<path d="M2 4.46674C3.10275 4.46674 4 3.55955 4 2.44458C4 1.32961 3.10275 0.422424 2 0.422424C0.89725 0.422424 0 1.32961 0 2.44458C0 3.55955 0.89725 4.46674 2 4.46674Z" fill="black"/>
<path d="M2 11.5443C0.89725 11.5443 0 12.4515 0 13.5665C0 14.6815 0.89725 15.5887 2 15.5887C3.10275 15.5887 4 14.6815 4 13.5665C4 12.4515 3.10275 11.5443 2 11.5443Z" fill="black"/>
<path d="M2 5.98337C0.89725 5.98337 0 6.89056 0 8.00554C0 9.12051 0.89725 10.0277 2 10.0277C3.10275 10.0277 4 9.12051 4 8.00554C4 6.89056 3.10275 5.98337 2 5.98337Z" fill="black"/>
</svg>
