<svg width="15" height="15" viewBox="0 0 15 15" fill="none" xmlns="http://www.w3.org/2000/svg">
<path d="M13.9359 6.05762H13.5556V4.68969C13.5556 2.15958 10.9434 0.0460417 7.67834 0.000924531C7.58913 -0.000308177 7.41087 -0.000308177 7.32169 0.000924531C4.05659 0.0460417 1.44436 2.15958 1.44436 4.68969V6.05762H1.06406C0.47802 6.05762 0 6.52242 0 7.09646V13.9575C0 14.5309 0.47802 15 1.0641 15H13.9359C14.5219 15 15 14.5309 15 13.9575V7.09646C15 6.52245 14.522 6.05762 13.9359 6.05762ZM8.70591 10.52V12.5931C8.70591 12.8305 8.44734 13.0314 8.13824 13.0314H6.86184C6.5527 13.0314 6.29412 12.8305 6.29412 12.5931V10.52C5.99433 10.2932 5.81979 9.97955 5.81979 9.6326C5.81979 8.97514 6.48101 8.41019 7.32173 8.38408C7.41083 8.38131 7.58929 8.38131 7.67838 8.38408C8.51911 8.41019 9.18032 8.97514 9.18032 9.6326C9.18024 9.97955 9.00571 10.2932 8.70591 10.52ZM11.0493 6.05762H7.67834H7.32169H3.95078V4.68969C3.95078 3.18255 5.54434 1.93637 7.5 1.93637C9.45566 1.93637 11.0493 3.18255 11.0493 4.68969V6.05762H11.0493Z" fill="#C4C4C4"/>
</svg>
