<svg width="30" height="30" viewBox="0 0 30 30" fill="none" xmlns="http://www.w3.org/2000/svg">
<path d="M30 12.7986H19.6133V14.6767H30V12.7986Z" fill="#86D6F2"/>
<path d="M27.3617 17.8069H19.6133V19.685H27.3617V17.8069Z" fill="#ACE3FC"/>
<path d="M15.8647 18.8568C17.9356 17.5103 18.5945 14.6159 17.3334 12.4046L14.1317 6.79017L15.8844 5.65061C16.2986 5.38133 16.8407 5.52204 17.0929 5.96425L19.8373 10.7766L21.3396 9.79974L18.5952 4.98742C17.8386 3.66066 16.2122 3.23854 14.9696 4.04644L5.45511 10.2328C5.0439 10.5344 4.46734 10.2944 4.24656 9.91911L1.50228 5.10679L0 6.0835L2.74434 10.8958C3.50002 12.1724 5.06101 12.681 6.36993 11.8368L8.12258 10.6972L11.0499 15.8304L9.97536 16.5291C9.18869 17.0406 8.71537 17.9331 8.70928 18.9165C8.70318 19.9 9.16543 20.7991 9.94566 21.3218L16.799 25.9118L19.1304 30L20.6327 29.0232L15.1135 19.3451L15.8647 18.8568Z" fill="#0C61C6"/>
<path d="M7.92368 6.26045C9.54269 6.26045 10.8552 4.85901 10.8552 3.13026C10.8552 1.4015 9.54269 6.10352e-05 7.92368 6.10352e-05C6.30466 6.10352e-05 4.99219 1.4015 4.99219 3.13026C4.99219 4.85901 6.30466 6.26045 7.92368 6.26045Z" fill="#0C61C6"/>
<path d="M10.8554 3.13019C10.8554 1.40146 9.54293 0 7.92394 0C7.36589 0 6.84441 0.166611 6.40039 0.455536L9.44994 5.8031C10.2928 5.25334 10.8554 4.262 10.8554 3.13019Z" fill="#0A4EAF"/>
<path d="M17.334 12.4045L14.1323 6.79014L15.885 5.65058C16.2992 5.3813 16.8413 5.52201 17.0935 5.96422L19.8379 10.7765L21.3401 9.79971L18.5958 4.98739C17.8392 3.66063 16.2127 3.23851 14.9702 4.04641L10.2129 7.13957L16.5702 18.2877C18.07 16.8019 18.4384 14.3413 17.334 12.4045Z" fill="#0A4EAF"/>
</svg>
