<svg width="30" height="30" viewBox="0 0 30 30" fill="none" xmlns="http://www.w3.org/2000/svg">
<path d="M15 28.0687H21.3867V30H15V28.0687Z" fill="#27393C"/>
<path d="M20.0051 30H9.99609L11.4545 23.8474L12.3053 24.0908H17.6959L18.5467 23.8474L20.0051 30Z" fill="#D1D1D1"/>
<path d="M20.0045 30H15V24.0908H17.6953L18.5461 23.8474L20.0045 30Z" fill="#9EA5A5"/>
<path d="M30 19.4923V0H0V19.4923L1.61467 21.844H28.2422L30 19.4923Z" fill="#4A696E"/>
<path d="M30 19.4923V0H15V21.844H28.2422L30 19.4923Z" fill="#37494A"/>
<path d="M1.75781 21.844V1.93133H28.2422V21.844L30 19.4923V0H0V19.4923L1.75781 21.844Z" fill="#37494A"/>
<path d="M8.61328 28.0687H21.3867V30H8.61328V28.0687Z" fill="#37494A"/>
<path d="M28.2422 21.844L30 19.4923V0H15V1.93133H28.2422V21.844Z" fill="#27393C"/>
<path d="M0 19.4923H30V25.0564H0V19.4923Z" fill="#EAF2F9"/>
<path d="M15 19.4923H30V25.0564H15V19.4923Z" fill="#D1D1D1"/>
<path d="M14.1211 8.45343H15.8789V19.4925H14.1211V8.45343Z" fill="#60E3F4"/>
<path d="M15 8.45343H15.8789V19.4925H15V8.45343Z" fill="#28C5EA"/>
<path d="M10.3441 10.7066V12.8955H6.68945V9.86974H4.93164V14.8268H10.3441V19.4923H12.1019V10.7066H10.3441Z" fill="#60E3F4"/>
<path d="M25.0688 9.86974H23.311V12.8955H19.6563V10.7066H17.8984V19.4923H19.6563V14.8268H25.0688V9.86974Z" fill="#28C5EA"/>
<path d="M17.691 6.25075C17.691 7.88079 16.4834 9.20697 14.9998 9.20697C13.5162 9.20697 12.3086 7.88079 12.3086 6.25075C12.3086 4.62006 13.5162 3.29388 14.9998 3.29388C16.4834 3.29388 17.691 4.62006 17.691 6.25075Z" fill="#A9E5EA"/>
<path d="M5.81018 11.2123C7.29639 11.2123 8.50121 9.88852 8.50121 8.25559C8.50121 6.62267 7.29639 5.29892 5.81018 5.29892C4.32396 5.29892 3.11914 6.62267 3.11914 8.25559C3.11914 9.88852 4.32396 11.2123 5.81018 11.2123Z" fill="#A9E5EA"/>
<path d="M24.1911 5.29892C22.7073 5.29892 21.5 6.62529 21.5 8.25559C21.5 9.88596 22.7073 11.2123 24.1911 11.2123C25.6749 11.2123 26.8821 9.88596 26.8821 8.25559C26.8821 6.62529 25.6749 5.29892 24.1911 5.29892Z" fill="#54DEED"/>
<path d="M15 9.20697V3.29388C16.4836 3.29388 17.6912 4.62006 17.6912 6.25075C17.6912 7.88079 16.4836 9.20697 15 9.20697Z" fill="#54DEED"/>
</svg>
