<svg width="15" height="10" viewBox="0 0 15 10" fill="none" xmlns="http://www.w3.org/2000/svg">
<path d="M7.5 0.466736C4.63409 0.466736 2.03513 2.05209 0.117367 4.62712C-0.0391224 4.83808 -0.0391224 5.13281 0.117367 5.34378C2.03513 7.92191 4.63409 9.50726 7.5 9.50726C10.3659 9.50726 12.9649 7.92191 14.8826 5.34688C15.0391 5.13592 15.0391 4.84119 14.8826 4.63022C12.9649 2.05209 10.3659 0.466736 7.5 0.466736ZM7.70558 8.17011C5.80316 8.2911 4.23213 6.70575 4.35179 4.77914C4.44998 3.19068 5.72338 1.90317 7.29442 1.80389C9.19684 1.68289 10.7679 3.26824 10.6482 5.19486C10.5469 6.78021 9.27355 8.06773 7.70558 8.17011ZM7.61046 6.69955C6.58561 6.7647 5.73872 5.91153 5.80623 4.87531C5.85839 4.01904 6.54572 3.32719 7.39261 3.27135C8.41746 3.2062 9.26435 4.05937 9.19684 5.09559C9.14161 5.95496 8.45428 6.64681 7.61046 6.69955Z" fill="#C4C4C4"/>
</svg>
